<?xml version="1.0" encoding="UTF-8"?>
<svg xmlns="http://www.w3.org/2000/svg" xmlns:xlink="http://www.w3.org/1999/xlink" width="222.779" height="222.779" viewBox="0 0 222.779 222.779">
<defs>
<clipPath id="clip-0">
<path clip-rule="nonzero" d="M 0 0 L 222.777344 0 L 222.777344 222.777344 L 0 222.777344 Z M 0 0 "/>
</clipPath>
</defs>
<g clip-path="url(#clip-0)">
<rect x="-22.2779" y="-22.2779" width="267.3348" height="267.3348" fill="rgb(100%, 100%, 100%)" fill-opacity="1"/>
</g>
<path fill="none" stroke-width="4" stroke-linecap="butt" stroke-linejoin="miter" stroke="rgb(0%, 0%, 0%)" stroke-opacity="1" stroke-miterlimit="10" d="M 235.546063 301.590281 L 451.534344 301.590281 L 451.534344 517.578562 L 235.546063 517.578562 Z M 235.546063 301.590281 " transform="matrix(1, 0, 0, -1, -232.382, 521.227)"/>
<path fill="none" stroke-width="4" stroke-linecap="butt" stroke-linejoin="miter" stroke="rgb(0%, 0%, 0%)" stroke-opacity="1" stroke-miterlimit="10" d="M 271.553875 348.394969 L 419.682781 348.394969 L 419.682781 496.527781 L 271.553875 496.527781 Z M 271.553875 348.394969 " transform="matrix(1, 0, 0, -1, -232.382, 521.227)"/>
<path fill="none" stroke-width="4" stroke-linecap="butt" stroke-linejoin="miter" stroke="rgb(0%, 0%, 0%)" stroke-opacity="1" stroke-miterlimit="10" d="M 289.698406 359.930125 L 386.936688 359.930125 L 386.936688 457.168406 L 289.698406 457.168406 Z M 289.698406 359.930125 " transform="matrix(1, 0, 0, -1, -232.382, 521.227)"/>
</svg>
